<mxfile host="app.diagrams.net" agent="Mozilla/5.0 (Windows NT 10.0; Win64; x64) AppleWebKit/537.36 (KHTML, like Gecko) Chrome/130.0.0.0 Safari/537.36" version="24.8.6">
  <diagram name="Strona-1" id="0cRk-EzxOKH1pTT7EQ4G">
    <mxGraphModel dx="1500" dy="773" grid="1" gridSize="10" guides="1" tooltips="1" connect="1" arrows="1" fold="1" page="1" pageScale="1" pageWidth="827" pageHeight="1169" math="0" shadow="0">
      <root>
        <mxCell id="0" />
        <mxCell id="1" parent="0" />
        <mxCell id="35dKP0a0qPvihtCSCPD3-1" value="Scenariusz 3: Scenariusz zakÅ‚ada uruchomienie SAS CI 360 w chmurze w VPC umieszczonym w organizacji Orlen." style="rounded=0;whiteSpace=wrap;html=1;strokeWidth=1;fillWeight=4;hachureGap=8;hachureAngle=45;align=left;verticalAlign=top;fontSize=14;labelBackgroundColor=none;fillColor=#f9f7ed;strokeColor=#808080;dashed=1;dashPattern=1 1;movable=1;resizable=1;rotatable=1;deletable=1;editable=1;locked=0;connectable=1;fontStyle=1;fontColor=#666666;" vertex="1" parent="1">
          <mxGeometry x="80" y="40" width="960" height="100" as="geometry" />
        </mxCell>
        <mxCell id="35dKP0a0qPvihtCSCPD3-2" value="Web / Email" style="rounded=1;absoluteArcSize=1;arcSize=2;html=1;strokeColor=none;gradientColor=none;shadow=0;dashed=0;fontSize=12;fontColor=#9E9E9E;align=left;verticalAlign=top;spacing=10;spacingTop=-4;fillColor=#E1F5FE;movable=1;resizable=1;rotatable=1;deletable=1;editable=1;locked=0;connectable=1;" vertex="1" parent="1">
          <mxGeometry x="80" y="300" width="170" height="130" as="geometry" />
        </mxCell>
        <mxCell id="35dKP0a0qPvihtCSCPD3-3" value="Backoffice&lt;br&gt;&lt;font style=&quot;font-size: 10px&quot;&gt;Business Systems&lt;/font&gt;&lt;br&gt;" style="rounded=1;absoluteArcSize=1;arcSize=2;html=1;strokeColor=none;gradientColor=none;shadow=0;dashed=0;fontSize=12;fontColor=#9E9E9E;align=left;verticalAlign=top;spacing=10;spacingTop=-4;fillColor=#FFF8E1;movable=1;resizable=1;rotatable=1;deletable=1;editable=1;locked=0;connectable=1;" vertex="1" parent="1">
          <mxGeometry x="80" y="440" width="170" height="130" as="geometry" />
        </mxCell>
        <mxCell id="35dKP0a0qPvihtCSCPD3-4" value="Mobile Devices&lt;br&gt;&lt;font style=&quot;font-size: 10px&quot;&gt;Push Notifications&lt;/font&gt;&lt;br&gt;" style="rounded=1;absoluteArcSize=1;arcSize=2;html=1;strokeColor=none;gradientColor=none;shadow=0;dashed=0;fontSize=12;fontColor=#9E9E9E;align=left;verticalAlign=top;spacing=10;spacingTop=-4;fillColor=#F1F8E9;movable=1;resizable=1;rotatable=1;deletable=1;editable=1;locked=0;connectable=1;" vertex="1" parent="1">
          <mxGeometry x="80" y="580" width="170" height="140" as="geometry" />
        </mxCell>
        <mxCell id="35dKP0a0qPvihtCSCPD3-5" value="" style="strokeColor=#dddddd;fillColor=#ffffff;shadow=1;strokeWidth=1;rounded=1;absoluteArcSize=1;arcSize=2;labelPosition=center;verticalLabelPosition=middle;align=center;verticalAlign=bottom;spacingLeft=0;fontColor=#999999;fontSize=12;whiteSpace=wrap;spacingBottom=2;html=1;movable=1;resizable=1;rotatable=1;deletable=1;editable=1;locked=0;connectable=1;" vertex="1" parent="1">
          <mxGeometry x="90" y="490" width="70" height="70" as="geometry" />
        </mxCell>
        <mxCell id="35dKP0a0qPvihtCSCPD3-6" value="" style="dashed=0;connectable=1;html=1;fillColor=#757575;strokeColor=none;shape=mxgraph.gcp2.database;part=1;movable=1;resizable=1;rotatable=1;deletable=1;editable=1;locked=0;" vertex="1" parent="35dKP0a0qPvihtCSCPD3-5">
          <mxGeometry x="0.5" width="50" height="45" relative="1" as="geometry">
            <mxPoint x="-25" y="12.5" as="offset" />
          </mxGeometry>
        </mxCell>
        <mxCell id="35dKP0a0qPvihtCSCPD3-7" value="" style="strokeColor=#dddddd;fillColor=#ffffff;shadow=1;strokeWidth=1;rounded=1;absoluteArcSize=1;arcSize=2;labelPosition=center;verticalLabelPosition=middle;align=center;verticalAlign=bottom;spacingLeft=0;fontColor=#999999;fontSize=12;whiteSpace=wrap;spacingBottom=2;html=1;movable=1;resizable=1;rotatable=1;deletable=1;editable=1;locked=0;connectable=1;" vertex="1" parent="1">
          <mxGeometry x="170" y="490" width="70" height="70" as="geometry" />
        </mxCell>
        <mxCell id="35dKP0a0qPvihtCSCPD3-8" value="" style="dashed=0;connectable=1;html=1;fillColor=#757575;strokeColor=none;shape=mxgraph.gcp2.storage;part=1;movable=1;resizable=1;rotatable=1;deletable=1;editable=1;locked=0;" vertex="1" parent="35dKP0a0qPvihtCSCPD3-7">
          <mxGeometry x="0.5" width="50" height="40" relative="1" as="geometry">
            <mxPoint x="-25" y="15" as="offset" />
          </mxGeometry>
        </mxCell>
        <mxCell id="35dKP0a0qPvihtCSCPD3-9" value="" style="strokeColor=#dddddd;fillColor=#ffffff;shadow=1;strokeWidth=1;rounded=1;absoluteArcSize=1;arcSize=2;labelPosition=center;verticalLabelPosition=middle;align=center;verticalAlign=bottom;spacingLeft=0;fontColor=#999999;fontSize=12;whiteSpace=wrap;spacingBottom=2;html=1;movable=1;resizable=1;rotatable=1;deletable=1;editable=1;locked=0;connectable=1;" vertex="1" parent="1">
          <mxGeometry x="130" y="630" width="70" height="70" as="geometry" />
        </mxCell>
        <mxCell id="35dKP0a0qPvihtCSCPD3-10" value="" style="dashed=0;connectable=1;html=1;fillColor=#757575;strokeColor=none;shape=mxgraph.gcp2.mobile_devices;part=1;movable=1;resizable=1;rotatable=1;deletable=1;editable=1;locked=0;" vertex="1" parent="35dKP0a0qPvihtCSCPD3-9">
          <mxGeometry x="0.5" width="50" height="36.5" relative="1" as="geometry">
            <mxPoint x="-25" y="16.75" as="offset" />
          </mxGeometry>
        </mxCell>
        <mxCell id="35dKP0a0qPvihtCSCPD3-11" value="Stacje&lt;div&gt;POS&lt;/div&gt;" style="rounded=1;absoluteArcSize=1;arcSize=2;html=1;strokeColor=none;shadow=0;dashed=0;fontSize=12;align=left;verticalAlign=top;spacing=10;spacingTop=-4;fillColor=#ffe6cc;fontColor=#B3B3B3;movable=1;resizable=1;rotatable=1;deletable=1;editable=1;locked=0;connectable=1;" vertex="1" parent="1">
          <mxGeometry x="80" y="160" width="170" height="130" as="geometry" />
        </mxCell>
        <mxCell id="35dKP0a0qPvihtCSCPD3-12" value="" style="image;points=[];aspect=fixed;html=1;align=center;shadow=1;dashed=0;image=img/lib/allied_telesis/security/POS.svg;imageBackground=default;imageBorder=#CCCCCC;movable=1;resizable=1;rotatable=1;deletable=1;editable=1;locked=0;connectable=1;" vertex="1" parent="1">
          <mxGeometry x="136.75" y="210" width="56.5" height="60" as="geometry" />
        </mxCell>
        <mxCell id="35dKP0a0qPvihtCSCPD3-13" value="&lt;b&gt;Google &lt;/b&gt;Cloud Platform" style="fillColor=#F6F6F6;strokeColor=none;shadow=0;gradientColor=none;fontSize=14;align=left;spacing=10;fontColor=#717171;9E9E9E;verticalAlign=top;spacingTop=-4;fontStyle=0;spacingLeft=40;html=1;whiteSpace=wrap;movable=1;resizable=1;rotatable=1;deletable=1;editable=1;locked=0;connectable=1;dashed=1;dashPattern=1 1;" vertex="1" parent="1">
          <mxGeometry x="360" y="160" width="680" height="710" as="geometry" />
        </mxCell>
        <mxCell id="35dKP0a0qPvihtCSCPD3-14" value="" style="shape=mxgraph.gcp2.google_cloud_platform;fillColor=#F6F6F6;strokeColor=none;shadow=0;gradientColor=none;movable=1;resizable=1;rotatable=1;deletable=1;editable=1;locked=0;connectable=1;" vertex="1" parent="35dKP0a0qPvihtCSCPD3-13">
          <mxGeometry width="23" height="20" relative="1" as="geometry">
            <mxPoint x="20" y="10" as="offset" />
          </mxGeometry>
        </mxCell>
        <mxCell id="35dKP0a0qPvihtCSCPD3-35" value="VPC 1&lt;div&gt;Customer 360 Zone&lt;/div&gt;" style="sketch=0;outlineConnect=0;gradientColor=none;html=1;whiteSpace=wrap;fontSize=12;fontStyle=0;shape=mxgraph.aws4.group;grIcon=mxgraph.aws4.group_vpc;strokeColor=#879196;fillColor=none;verticalAlign=top;align=left;spacingLeft=30;fontColor=#879196;dashed=1;movable=1;resizable=1;rotatable=1;deletable=1;editable=1;locked=0;connectable=1;" vertex="1" parent="35dKP0a0qPvihtCSCPD3-13">
          <mxGeometry x="70" y="60" width="540" height="220" as="geometry" />
        </mxCell>
        <mxCell id="35dKP0a0qPvihtCSCPD3-37" value="" style="shape=image;verticalLabelPosition=bottom;labelBackgroundColor=default;verticalAlign=top;aspect=fixed;imageAspect=0;image=data:image/png,iVBORw0KGgoAAAANSUhEUgAAARwAAACxCAMAAAAh3/JWAAAAkFBMVEX///9Hwsd2hJc9wMVzgZV3hZj5/f3q7O/29/jk5+ry8/Xt7/LY8fL7/PyBjqBtfJHy+/uIlKWW2t2osb2/xc9kzNCZo7HU2N7JztV+09bZ3eKPmqrf9PXo9/jW8fJRxcq2vcehq7i25een4uRxzdHH7O7A6Oq5wMmH1tmg3eBpys+mr7udprMkvMKm4+Sb299fD7CRAAATuklEQVR4nO1diZqyOhJVFlkUAQFBFkEE9779/m83laAkrALS3XNnON/M/dsWQtVJbQlJejabMGHChAkTJkyYMGHChAkTJkyYMGHChAkTJkyYMGHChCZowT5NTwhpuve1vxZnPCwCfw+qgVZ7P1gMaEDbn66XJJyzCPPQ2l3jNBhdzD9AsD8dN7vEssLQspLd5njqq1dw+k6AlzkBUGRd4tVHcikLwEctfAotjS8W0oVSaw569eAnOF1CmhjSUnIcRM8CHPQUx8fr9XqMY/DSv3HSIP222BrFoN83p270aGk9NU964p5GuPDTGBzUCtkXkJMeB+j2IRbpplGvORteTh06LDhajU2gVuabfQ+J/NN1Z80r3cXuBus4FP7RalEL0fP9VrF9s9m8WrmdOsqjpcddWGfH8/mvk9PiDrliyak9IqbJmxYQwmOXsKqlm9u8SaDLOCp3xeJ066AXKNbmWp246cQOeHibGf8uOVrc7lJEse/miJpW+H3F0L7srL7bxdlU7ghWP1ZoasewIkCDYvNNEzv7pHT/3NptNtfr5lKJqWFrutHidxZYIkc7fe8SqMhifyQ+aCziEjeoZksuG8AuqcTETX0P+btCC/NdnK78QNO0AHo13hVbCVui8qolZz7xT/HJGyvryHD3JiYOwamYfuEhRxgOBQi+vz9til/Xd3uwKVBzSX1aTihXLoVGbk2dvEgLJJPeQhXOczzCFiTwKTuz4rHZKfoDa133xfGUtooL9FhpjU608UG6rvpecCoYRDVsZM+qBj9gJblcT/sMafy9s2hytB2LuyNz3TrZPkGxz6GYqbrNwr/S4u6qV6QUfexlX9d/yiqh2AlrtagEPxYVn2DFWt7iQgtWFPWLGHMS71enC372uHGn0OdJWh9RtJTq9zAufx1cqDYaE1qwo9jZ1RAYfBe5gch1WrVPC2jI0hLcG8G1VrZPsKIkZjfNI8MVZRtl06Gdir02J/uAsp0a0ylxgyLX2wmTPbRoPcO7D6qw3yNGHeVISdOYphFWRHKrlGz2ROn2NgJK+0olp12L3Ow6TAUgr2KTZ18p6MNlxHkjf9dRL4grpNuL4VS7Uhq1+zzVRjlhFeMNa3UawC+OLEVz+l6AXjiFXfWaLQiPScGv9iTDvMsWVBul6LA4Fbi5rDq5B7acfByasqNGZO2bCPs2C67yay16fK4difG9rTP8JvNLCzn82NE5FGSKtxVRhm2oUYeAhGP2+22ri1z+Qq8Tw+lg06SN4sQDXWCzYfdKN0A3XLLLU2R7I06Epbktvzec2WLzYpKukrNKI0OHuZpjrW9SYQvCTdo942hIpvCyx/NsqP7sM5n2BjHp9PeGrOQ0hFfyWxLSO2WKfU7Ojaob0pDmpo8GPr7TuiUW/uGo9Lm5FYu8H99HC8ApV4yKF2muVgfjg67+el1OBS6fLoC6ThU+VThRlSV7GXHegsRjtoNiSi5H+J3/Mtj0MpzZ4us1VU5YoD1zHvfs+8XpNWPIvitG+oFoFnbw1Vq32pMprm5dvs+R9/KKRGn22r/v/U02Wn83i9sTweXVj13IqQ3Ip1yvZGgs1K6kFhhU4CraPo7fDzV6YuG/enHVocPqUjlRbEifZ6AHJiNPOfweApJociOhQulQvegi8g9e140DhYTeJDd+koMHe5Xfp4j8bwUxHGpEnSew4ZmCysWjTsb8KsiEDonHVMgZqlhwIbXAv9ZwNqSDqZCTl8fFCjCIN9nynHloXf5pHQ5Q4fhfazgUN5RXkUEnFXL8TUi/8mLZr2tdixlIAfjvjTj09C81Ebh/dTspUNKkuiyiJQlRXvUvTVX7wmsVaq4hn9l7zXisqtS0q01y1cc1jnYMEbCp/toaMD/5olWllKB8AseLxbF+UVcLOft+Q7NWpCO21QXK6mh9Fd94kkEnnayQq2mbOmpayaHobQlMHUHGaNaI0zolbHYZEvSmvKwv/cKJGrie6PDRnRzC5whvnChxfm4YkuQL8KoozK0TOkAarYmbNnLIi74ROrvs5T+CpElLsJuCM5Myx0oX3403tZCTx+NREnlKnvhjEbmRnLA000aGnda+tI4lDK0k2SU3C/JHSz+ucnXGeG1AKosRX0KU0EROWJ6hJcs/kiNdCYXU0twgvVot5IwYj6ma9AfTVaPlWN/FxWUrQg61jqW6iKjZxsl8+xglYO7mP1htN8ccdn6hVyWt6tbuJafus8BkWnqUgZV/ycn5bC9BC1oC8pwNqfcUNeSEvaYuyLuDUdaO5NmTTf6EHMB33cx4rmOvNEGS7zjk5IXO4Km3t9hZL+CRSoWdPBVUyOnJzejkXH6eHLzXKkV7yWK8u6g8YApfK4TK5PTlJlsIkGHcmPNzblUE5OJdhYTsqzI5rQvcazEyOb+QrSpQSsvt2ed77iI5Q4qL/ah1Tl5a/PKMa2njSLbqo0jOkNERVSGPUPCTInDUF8PvsYhvldnAIjn9neq1SGKg2VVAxlaD3zAOxZ4eIWDTKZAzaFhNDUBGyC+/MSpvAr2QGM8H0uQM6yxq0qPf0pM6UIv4Pm+sN+iFxGhCkCZn2PwS9S7488EVNUnwF+/c99Ti06C4dmRgZUHmfT+Pofm76b95y7Mgq0VQ59DkDNSNvNP7eDkfNRH4fvXnT8AnKyyP9JTF4BBIxbFPg6g/XlPDsCATxd/FtXwDQyAJOh8nc7Li44+W+ZA5BvZS6Kvu8VjzX8BkUAsuP0sx1ALH33ltVYVPJNDolzHdyUl3L+D8RKzvw4nf/agrEoJT/ESXwwZeN+UHJ0C6olbzdScnzlvACxKopaQfeQMlyxgrtVf5+6mke+bTNi/EGq1YZ3IUokS2mpkqDz7J5nQzI+Qq6q1TjxpFyzGjA0bngKyQmjh7sUy9RP4g6tAePkZ57BMxh9ohtSmkq59Ta1KfNXHafVtTc6v5RoWRwjGZcR08FKE2PnQdWmkkxJwqcsyHVm+r27iGQ+98GDrCp6qUrp1O5v7ynSHUtpDeE60ZKKcaK4/nq8/7ROQiem4LmVFrxNh8vQYVddjbkIxF70gqb0AdCmp33GC/IlVKt3f3AVGDbL2hNkIOmddZ0NtDx3pLTiJyl+1WtaD8qtuwnEpNJIRT4XQ+7x2UCzu3R3snQ4IOFJUDp3CpeNGliRUhgV7pU1j31PNVLnBDbg777khqBuVXQ9cOUfutOjRB7Q4uboClz3uY7/rIUlyHOOLSEzoSDo3JlOm8zxOkOi71RvGYmh47p7QNfdzEqJNc9GbugQ3TqyTfVQR0aCmdSKAVzhKxutYWe/pEmWGprhGF9Z9DJzqJb4Zxq050V1R8MCgsRQ07uZZ2pI/CYsc+Pqfg67dB+wAXR0qntndXhcD5XfnaL50/1HI82BOnXeFFY7dz5HqA1qzv4poXaK2aW1hsClGlhkT6QBbU1O3a6uin0hv80bkpW/P81vWgBBq0+YW7er8vBIeGctovsgP0bJo23ATxrnQO0Q9wU5EIBOqd1IupJtxUO9wvnfvX8I7KLy9lDq3kWuXHjy+38hFNP8JN4fSbl0Cb+LWvOdjHl4bztSgUU83cuhSCl3a6lJaqXJoUKZyR9RLntrvG+yDQ0JFU/um4ScrMoFj8Awe9YaQ3tkaiW5Ikt9vNCrscBVre9RCCQqf9yt+n8XVX0aXuSKpXQ7VbS8IQBAKRsrVmVcCgYbxjGkoo207pyV3OSQ0qe0LQ7h4Lb/GptNfWyYu09Vzcevzo24ZyJOxPTg07Tc29W4gDrtWLnj4nygyC9t0sUMfjh7XmvQ+F1t6vF1D6GA/bfCDoeGgWqOvZzIXRcVNb3War6yNPXXvjTVG0otGaux9c3R678DElXR2gEz1Aza+994Uqo06gHqd6t6rEslafoa0W154HTzXHXn5pPW0GfNjKB+TgYx4b7O+rvwOsNjU7BV/MJKMf0voWi9NuXhKITXq1gHucLanyNWzUBt31T1LcNIh+/govP5ygWgQ6QkX7hU/W+fqCcre3X6OBT/5CnP2a744fzUEF6RH9dYM5OvTX2kH1/rd/GwNB03w/+GDS0Ud/ySLu/edGJkyYMGHChAkTJkyYMOEDKIqS//cHWhfFhobhG/H5gywrla9+bE6/D2TXtsWZYtu2AFIt5VGFUiTTiExJfH4UJenVvLK0I+Psose5URTZIrlHhpuMyBHESnMjyuW6UgdNHV5VpdmSUVVzNjO5tT2mDA6vPx46Hz0/u7zuvn7crrcPjz8IM8mNDvZZeN0j2lsOQeUiubHdl9ENhXxXVa/UfJ252msGkcMzHJCjMpz+0VOLkNQ7SCBH90wV8czrUfaN8PBcRN7DndmCeXCcVz8qJs8xDMPD/9WooVnRNgznIwuXDY7blshBRi6VriuQo/P84ZOHlmDwT1aej/eM81Z4PtVB/6BAJ7nm2TVfluPwDM97B+OgV6TPIUaqeh+dHFtXmbLbFMiRjGZbHoDDmv6kOLrk6ib+2dGJHLYjOc6TP9kDozmgDnQPIMlSEJA8QvaPLAFkRXFBtYe0FHF8wr+CL0W4Fn8UZ6IgSctne/Bj9rMIjcyE5++f5MDvliLcA+FNER2d4R0cc0V8k1ImZynLmBwZfwuPwzKLWILsWYIsLp93PlvJrsFSlgPBmaHtdLk1ZsvDAzdk62dyseS4Lztw1gyjk/45eJ4BFGw9z0E9t1bV9cF2dbho7R1c8K/7WuXWBrpdusNFxppbm4Kpc/wWBzch0lWVf7j4id7W9Z7h70mOpHt3885zuiOKZ/AaXvdMcbY0PU7lt7ZSIgekQHeDGBz/cA7e1kaRPUJCIQkUB743t3x2J2qFVxnUnuIe4Bo9ysNqBkHXbZJ0bLAW5WkyS0M/SzWZ0QA5qHCigw4gAc+BUvJW5dc6w90dFTyPUXVbcdY4doNyysz1OH7NQLzitjzHQewEigUPvvMgiAE7cBcDWp1pclxgFthluLUjG6hVTo3k5QE+63Ap6FggBx4GMWfpwfUcPItDkUHyVF7XeQ4iqGJCa/jRKJwu70wmmgQdzsE1jFrx4+3aO7svU96KOO5g3SVD1w1bKNNz4HmVsjadYRA5awbIkVRmbTrGXRIe8Gv9HkmID+9+R7JJQA4o/zjApZxneNAMdAKouXXcM84yDgeWsb3bRXJ4Zn14AKeG4Gzh1u3dESMe36Rz+rJEDsMAOYbK8w/jgYzXmckHbn1wbIPnDFExOZ7x7lt0sTKLIHZujYdng3ly68i2t7zqlJQVHcNb37G6WbgRTS/L5qIbQTa3S57YQo6rMmCH8hIFZI4Db4PCg4GHQ/wCa0PkcIasHCBmwQf41VlBStkQakB5CZNzkJ7JOicHGlbkOwph2PRANGnLMaYgSFtGdWvIUUBpiAwgAiJH4hjdWQq2jqzFxL9CckQitILalF0RaIK+E5aQhfWqp0jnNTIoMdJtCGJLZ31+fSM727zuyd2KL7gVRc4SfIz3InicDORAtkIaRkCuiP8FoZCxQI+tlzMFSYgyHwOBAkwCdHNA9PxhhBzk6iZ8yMixkfMzvIdvUk2lSo4MfCLrg98BE+Cra7jYwz4G5EAzmVTQCvdMOQ8wc3QNRIK6DGvyyDt1/oGw5bckMhXiMgIE5FeOXRJyeESOYkM5ySEpnuQskRjwPCUqkuPBnTk5eoaMnGWVHGx6ZXLW+J51HTmCmnEsrzNyIIhjeIgcbCw5Oc+u2IIDZtes68gRGBMVy0aEcdCJ7wkPoxillpDKuQgqQlEyJEwOhAuBY3CWEezzFnH3JAd510PAjgA+RMjRn+QoLlIKxkWmA0OjruRAO3yU3STVuJX4lMXGPmSD6Z1t23HgCQpFjoycC/U7/O8O3eWgBu1izBGy8GGD5Sy9w5M3YQsVjJylfcmLSkHHRBH1YTpnTwU3fkCgsKGswZbjOMLyzHGeIJ7BgCEN2mDahgvhkIFBTw05InRfJC2lyFnOupDDMJEEyQoCmitIZ0eY1QXkLWLFdTwckAXwp0gS3LMjzwrkyAfoVtNFwyIH+Zwg2JFbNJzIg5Gl6G695asknqEBAvi5vTWXiiIYerkmRckCJ0EYPhjIbMHIVexWDsoSkEcPigKK8rohyQak7jU4Ig+la04Ol5MD/gx5FWptaAmHhxpy9Jwc4QGNQVHgQGzTH9AaGHUNOS6SDz0TkSNCmOW9ra7yplIgB7wTZITMbiCeoOx68DjcU3A8PTIjD3pHPni5ZJJuiNJBP5zPW8+sFOSyieoUwBr8SnygkgLUA3KgtFNVZDLIGxkOGRaqx9CVqL4Cr6DJweEI+gFGsGAeDiKH46vkcIgcKFCAHMyKeoZSGZjFN4lADofJ4dS8zgGlQD7dwORA+EM3QVFo4zoHBeQ7JkdxMjU8AUupQqV4L43cXNM43M8uSunEREQ0RyI40eEQlTN5Rp4T3e9G9p1gGoYpOKYJRRY0Bh8Q/YpkRpGDxrROZMCViOElXIQ4Mk00FEF34Pr/DN/jeyTTNEUigmnaqBY2kfPAV7gxGyIiKnWfD4L70ZMhb8OtEm7TzuQ7m7aE3Qq1hJ7gSFgoEyRBTbtiJuOzlSWW0qkOzORl02BNKU9xEYhLchc9OSHK+QdFfNvKUwC5++yG8pqzEFtuQkTMFAh7uvS6uEEC0spbKf9H4PLe2XEiyBuH/wt9e2GrQhRE4cRz31/8/wYbBm4cZDlj4qYGsouKPnf5/soJEyZMmDBhwoQJEyZMmDBhwoQJEyZMmDBhwoQJEyZM+J/DfwCCF6Vils/KNQAAAABJRU5ErkJggg==;imageBorder=#B3B3B3;" vertex="1" parent="35dKP0a0qPvihtCSCPD3-13">
          <mxGeometry x="178.32999999999993" y="130" width="112.32" height="70" as="geometry" />
        </mxCell>
        <mxCell id="35dKP0a0qPvihtCSCPD3-38" value="" style="shape=image;verticalLabelPosition=bottom;labelBackgroundColor=default;verticalAlign=top;aspect=fixed;imageAspect=0;image=data:image/png,iVBORw0KGgoAAAANSUhEUgAAARMAAAC3CAMAAAAGjUrGAAAAllBMVEX///8DMEsAFDoALUnb3+IVPFYAGDwAIkIAKUYAJ0UACzYAGTwAJEMAHD4AEDgAHj/2+fqNmaTGzdIAEzoAADP09vfs7/FDWm27wsjj5+mjrbVfcYCstbx5iJTM0tezu8JpeoiXoquAjpk6U2dPZHVygo8kQ1oAADQ0TmMoRlxSZndidIOGlJ/d4uXK0NTT2dwAAC0AACX07FkuAAAQ50lEQVR4nO1d6ZqqPLMVEEIYEgRBBBRxeh2bPvd/cwcTVIagxK/bYTfrx3720wqGolLDSqXS63Xo0KHDPwLLevUI3giePwg3sgBVeT2aBNNXD+f1SA9bTQeqKkmCIEgqxKK+i9xXj+qVCGRknIRRgmoOwz+rLQk0awKhgM7iT0rFF3CDRIiyoNB79QifDWuHLhKRIFBEpCFHNA31qita8OpBPhdT1TgLBCB5n9j9seuN03gwMvWLWMTwL7nnSMuVRFKEQb/0keWHCsiFYsjHFw3w+Ui0/KGVrc/42Ds4uRZJKHr64F6DAcrVQI0bvmFNzoo0bPrKv4Ug1xJxdsNcpDJVFWnzvIG9Dl+5SLQ70yLUiUyE54zqpfCoAZXM9N4356cpZk6eMagXY0RcrWS08CjJ0ESLP+COI5GoCbqrJScc46/fHs8bwKLxPPob3qQd5sSagBX/la6drPb72TxqpWEfBE8hxkTmvtBf6gowoAoNLMLVPyWWAVETZHNe5sviNTfMUkZt1L9/0aeAEEjqiPOqlVYlFVTt8CvjewF8MnUcTrpohBn8ivmvOOkZPKn+mu+i8JwlQ4BNE8Bzzrz5N4RC1ATzUUXpMFcMJRxEcZzsFTMXCu8UfEukJF5T+DjFkCgGVK/ZUSTQ9ND8F2xKAPgT3THhFdSS9bBoeigM/wHvQ8yJwfd250QnnIpuTcj8gbsfHNyLsDgFGSZXWG8RnwP31b+PyIzSPp+apEwSVxAaEJlotWs8oijG/OcG9xpYxApoXCZWIEumi/oHZE7xuvX3g0sINr0eVnjzfYN/9qmnYhDZfYco3aevi1GZ4JpMPASgwg42CAHFph+JQVE+fQXVapDJBDTlhSlqDvKIuEzWUsgnYUqznZpMdqenU1l+dU+UATBLL3YfLxMvWCIiEgGNq58lxLeItb/3PGJNDDZLTafV9vCpXEq61/CZAFFqFKuLGvzqgWR/Wl1YJ9BcUDLQ+hN5TC9E52SWbR1W1F7WJhWJQdSQedMxOt9QUta8HNXLEYkFiWQxaX0qUFNqVoVF47UGtiUyr7eUEFtub4tQvI7dAADr2/p3FhIrAJMJKcf4+gl7DRRqVQzpg9JBa3tmhFQFjCZJEgQMz0r5N7E8BWwarzVYi9RP5kvBOd9dEj9m/ljbfN5AMbRv8GIkhK+kucvmeO2C/kDNS+Ik7VOEssiLA/5b3Q7CKZ/vFD1Mn8Zryb2fCHI2UhI/Y/rMKLsM5XtBhOvU3PGMOqP7pbLWnlosSfoEgtan/hIv73+VSgBf/0DjNYaTYiChv/MJFJNFy4FBG0eZu+Mr6Tq4Fa9VEdOSFvT+kT7J7QTYjl7fqGV3DIgjbqFhBAHRqvev36HaL0ntiudjQjihc+BPQzKxdakFzRb1d68IpNmK01afpVIgvyVRXEO8xoAFmWHfuwHyrQ3ny+vUgHwh3tceEMVC780x0TC0/dpwTgzQlY4lLfDi+T0a47939Rs3iUxMgmSc/nsk4QoY8Pwe0bMHKlueCbKYA+6GoVcU3DElDzSurU2fQFqTkIFrMWd7dseUzDY4C7yIPdLfOUQ5UvKMJ9zO3fE0JyMdzvyFELScRQvPBakh4PSNxFPBPTWXreO1M4gB41yNfi7s00vnrCGgEQ2gXpmbEElA6wTpRfBP8YLEVzZD3TGtLuEPv6hMZryXPRFfCl8gShBemVuTO0wn6vXWAQqtSeJMyqYXMr5IG7QEceB8Mc2T4ZHH46zTomkOf7xGQIhu/NZZIPGnOqehvKxQIP7Yiz8gejpIysLtBvJS2AdMJXF0gvnW2/pp4MVrFqg7FhA/30xrbxnVO2+EY5VNbIUxMc3c1edn+3Wf5n8tKC3Em6iSCL01EXUFTRur9ZHvhohMcMzpQNJvqJr8e0VpUt2w3v5GoH6Vl/pKw90D1YxkIZFRH/luyLf+gSfoMy2XhW+vJvn6RGZSfl0o+daNB4Kap2NMt1RIxu8yx+6GikR8Z+7kgijPX7TfrHeOTVqH0mq98Q1wyAtygBT80gK3vRCpLYcf09hgcq5SMsEsbrf42x6ufZBziQhw/QlVBRSHc6sTAZrIkTfyT2EjY025NO0yR58jkmy6K4USP+knUbitdso17UnkrbLE59VP3ALjkXijv9ZPAAuUkoh67sxLP2P/SiwUt0z/MCSsndOHTCZ+FH1KCbG/1DD8BW1RgbZOLpYkOMlk+tZMWwleNFsDJCriT0ERkSLskk/f/eZ6fTvt/xDsdPzWnFqHDh06dOjQoUOHDh06dOjQoUOHDh06dOjQoUOHDh06dOjQ4e9hHB/CxWKzmwc/17/J8wf70WazXCXlSuJ+/M5byHO4yVozMTb17B+MhPm9Ss5pENxv4RItNJ3e08Qinl33DCR+f1ytRAuCNttxmB3ffgcDDRu6MlolQbJaAtEwhrPbNTBr3by3WSfCpmGizWwQJJOdhIChjfI6o6Mdfc17lYebaN/39xOm3yhvbPDb1fbHNVbF8KrNXzMFGuCWdtuieqeZnrsUVWcUXyTbP0CgalQVYisaBFWZ9J0WOy1WBt0olwLtgVN9OJAqqrIsTxZvj6RbJ4Du8GwBb/UY8GQDrMs2xDogCZFtlH078g5VmfQ2knO3PguotKh8qwrD39y+M1YkVJ/KMRK+GwstxxpKI7PeMPcKWVXqLzJVc6Ekdm88qdZCB+bdPhWxnn9FkATxN630VmWeaTn9b9H42iZ407MwaC7YnQHmsXaeKlCTMk3q8nYV9d7OgpEq0jENvpXfbEUWKYC9L7jZr1j41BBqYphNX0i1hs2g/VumcQ/vdEEZDy9nJNi/emS4oELeSwLzdMkRNe6dDeGtedUEW7zT0GQAntMkNUU8bZAoZEzGPjIaOllY+LHNepIEbn4uqM/pKpUAh7c62ReHZAr4SsM2UVvkOzvkjAFgHYJQuO2TGlnMIHfX0RHIe3KqBlsdAiw+VAU+Fm/uGd7Dll0y/1fsIG+PmiM6d2bM5jfTZh4AeswCjtQbLclc/YFd/A9hyS2TFThf4SG2Mh8M9NhGrPhWiBJg/Uk7U0LIabdc59qHPYRMozgAD7YSsMCNEGUrNfr+H8bE0Pn0PMHgogRfDvPVxeajR6CsYGPjjz56WputyOTshicUw9c1c1NrHz3aOW2KGk9jmhvOsxoUeEM+yxUrReMfmMyzieWHmwDLUlMECZsOBGiPse37dv+aqgeBPc7Usq7qO+jwBIcLo5gOW7oxY3wpwbxdPy5XNoUovl4yv3F8fhdWHDeM344LT+sGSxXRPWOLJLd2R7vnz3tevd3OUZOM9m4/dcrh9cpgdtuSJC5BX+E5zLN5Tq9OLNg96/+Gl9m5dYZML2cN0WUGeCtN10VN2G4FTcR4SN/Y+KvnR17AyFACJMHWIdbeKLupvsZMDabDR/uKL9Uhy+aPxVK6YGnXKCDW2XlXZunPQxgMgSIPcs1K5wCa5PzSTCaxm8QsN3FAktKS5fS0agCxgCpzQJqEHtr76yvMECXBJf0syiSzNMxmU0uYty52FzqQiw/u7hXiG8bTnm8FLjPqCYaqvm31WgcAV95irLMNwBcwsPDITleVaUsrtrckk4mBGHruORcXtvyuevG5ie95xvEIGaIc3Q8+1XrvW6nBb1kzDepqwh28TQxGiDKtpH8lmfQ1lgNPwOXgSbf+bkbq8O7I7AUCprm/Yxgjs37A5QA0HXrZDxHAzjLmiwmzJ6zHZjNYPgGsJJPegkUByTf7gfSdNp3M0pmiY1Fa3YpAt4xjhMeouT3n+KCKWMchl7ndqjULZYkVZSzLJDLr8zcVb3eDXBitOt5Z8fI/EzvCoEmrpiLLduxg1cYUYe+RjhUwab+2GODar0RmxbWUZdLD9T7FE6N+ZFgRCTBb5qlusNAA0EL2E+wgqwm9Ld7h2+Odg4G2aBuwuKi2SrJQQfkBKjKZGP9V36PJDCavsHWWYW7AcQ6xgfaMV+8N2XNQvksJeomsQDRqOYgQVuzfEVVNe0Um/RqB6ut3jt9IRZEnT7USbEBcf61zoDNnVYBbUMexjFXGMhILNcU7GNWsqiKTLEqqvJbQuPOe+qLCF2lnflQaVieEhRuamrpKq7bjSRbGtVvQrJ7/pqpV3qsqk9gsq4Un3ku4+iJvu9vTMqBWsXQBbuomOGtHlKaqJLZKDQegpBdZaFtVsKpMLLN8OnY2VqZKu8dplhufkABumZyOoqq4kzVs8l5pM+tRwhhIrZo0jsshSqjWaLuqTE4LcMXRboya5rrxZCE4CCGNQOFui5zhUFn7tMXmc2EXarszEHynHVkzgoUgzB3Wz+6qyaSPiidTHsUq/+fvhooioqGx2YWzE0L1AZlk+X4pOhyp2G7AdA5bttMdqa08YIn8y9K/2suoyaS3KXLtB1CmbvtbEYvyJC789pHfnpxubBS91amTsK40ALZtbu/frx0g0Aohylatk3Z1mURmIU2C5SXwWIPiruJ5H7CxvVMj/+L4J1BtFImimEI7b+/p7Rpyz+Cl7WfKInfrMrHA1QbZYtlGaxKoPf9jMhkXB5MFl/ue1YTsuy1XiNV2p4VkefDZ1awMhlOryyT73mVdZQaKWuuaEqw7oanyiEzcojdJMJOMviBskXufsGbzPzXI55DEAqwrGDLpa2e7apUn6IEZUkb4EZl4RZnczrzbr2+37VKenEOUWGfltwyZZJlufutYL1K32U+yXsPBeEQm/av+ZmHTPceyVtscUmYZ5diqER6CNObNPBXDzbNkEpn5sa6jUnNZTwMssz6SHpFJpl0XH7hQ7/Xzb7eaW5TzbSwhOQBtPGQaZZZMevnq9VgszZWUaUzdh2K208LPxfY7dxf2sqSnhaVoX2nk60TG2QUsh8aUycogZFSCS3FVykz2IvMRmRydq4uYQeduQrOCLdYuDXr8XRuY5OcbeAimTFKHPL1cTv+ODqtAaG3ckEnU5EOziXy+yNVu1sJS9NFFy/vbhkh/DtqvD06MTE3thrnGlElvczIkqVOmbntDxtp78J0029j4G7PX3Q7m1UO00/jFuaDmODTYHd19xHEUc3oSxx6yW7azZRKZ2QgmZsWzLSGu/ugYqT2tUSaeDA2ZwTQOUOGIIalVbV2sn9/pDqusyvRYFIYcc3idhSi4YaWULRML46QHqwfN28io+DpPHvq9G/UU7jpL4OcVptFbKpJ2sW2R3i5JUS+JSSgKaFe1QBMGT3ULAYZ72DBwtkx6K7CxFVDVihDoJS4rJe3mb54Cs9JUA00K9rE/GaoQXv+wlcRWGn+41gQkGlS1sKAU3gAbqsZVe+UpAhQaSpMaZNJH6pZxIuUIA/ki2/5sODzFohvzlmn7WouqIQqzxLdtP1jJogFReNWcryFuRxl6Q3CZysclglCEu0Fs23Y034hAdRacxZAhUM0Grsr61plPtJUEVg6y0gwFhoMgSlYyQpDIJ3RuP5W/RCYA2FQUHQNgarvifQ/LUcvFmclydJ0w6V7UT/fUFf10b7TgrjOwR8smqt9ajJjTMMLsM4DS8NT1mLBsQt6+eTCa3fl9L54sDMLJbVaci5mNsPz5UjrdE633wXMqW8d16jaH6yer/Wwece/r89yfb6bvuU/smpzg9z6/9xWQ69TtX0eKbhbs/0lMANep6n8CELzzicYvga80lQf9XSzb1dn8JXh3CdK/hwFwPumsoqfAZKR/fxwr45HNqv80AhG/8/HozwVJp9yJWCtm+sOYO8twhAwsdyf0XLBAuq4r+mecdvYkpHFySPxOSX4D/w9COQ/3U3o7qwAAAABJRU5ErkJggg==;imageBorder=#CCCCCC;" vertex="1" parent="35dKP0a0qPvihtCSCPD3-13">
          <mxGeometry x="396.49" y="130" width="105.19" height="70" as="geometry" />
        </mxCell>
        <mxCell id="35dKP0a0qPvihtCSCPD3-15" value="VPC 2&lt;div&gt;Orlen Data Repository and Analysis Zone&lt;/div&gt;" style="sketch=0;outlineConnect=0;gradientColor=none;html=1;whiteSpace=wrap;fontSize=12;fontStyle=0;shape=mxgraph.aws4.group;grIcon=mxgraph.aws4.group_vpc;strokeColor=#879196;fillColor=none;verticalAlign=top;align=left;spacingLeft=30;fontColor=#879196;dashed=1;movable=1;resizable=1;rotatable=1;deletable=1;editable=1;locked=0;connectable=1;" vertex="1" parent="35dKP0a0qPvihtCSCPD3-13">
          <mxGeometry x="70" y="350.0028571428571" width="540" height="291.7857142857143" as="geometry" />
        </mxCell>
        <mxCell id="35dKP0a0qPvihtCSCPD3-16" value="" style="strokeColor=#dddddd;shadow=1;strokeWidth=1;rounded=1;absoluteArcSize=1;arcSize=2;movable=1;resizable=1;rotatable=1;deletable=1;editable=1;locked=0;connectable=1;" vertex="1" parent="35dKP0a0qPvihtCSCPD3-13">
          <mxGeometry x="110" y="427.86" width="120" height="60" as="geometry" />
        </mxCell>
        <mxCell id="35dKP0a0qPvihtCSCPD3-17" value="Cloud&#xa;Storage" style="editableCssRules=.*;html=1;fontColor=#999999;shape=image;verticalLabelPosition=middle;verticalAlign=middle;labelPosition=right;align=left;spacingLeft=20;part=1;points=[];imageAspect=0;image=data:image/svg+xml,PHN2ZyB4bWxucz0iaHR0cDovL3d3dy53My5vcmcvMjAwMC9zdmciIHhtbG5zOnY9Imh0dHBzOi8vdmVjdGEuaW8vbmFubyIgd2lkdGg9IjIwIiBoZWlnaHQ9IjE2IiB2aWV3Qm94PSIwIDAgMjAgMTYiPiYjeGE7CTxzdHlsZSB0eXBlPSJ0ZXh0L2NzcyI+JiN4YTsJLnN0MHtmaWxsOiM0Mjg1ZjQ7fSYjeGE7CS5zdDF7ZmlsbDojNjY5ZGY2O30mI3hhOwkuc3Qye2ZpbGw6I2FlY2JmYTt9JiN4YTsJLnN0M3tmaWxsOiNmZmY7fSYjeGE7CTwvc3R5bGU+JiN4YTsJPHBhdGggY2xhc3M9InN0MiIgZD0iTTAgMGgyMHY3SDB6Ii8+JiN4YTsJPHBhdGggY2xhc3M9InN0MSIgZD0iTTE4IDBoMnY3aC0yeiIvPiYjeGE7CTxwYXRoIGNsYXNzPSJzdDAiIGQ9Ik0xOCA3bDItN2gtMnoiLz4mI3hhOwk8cGF0aCBjbGFzcz0ic3QxIiBkPSJNMCAwaDJ2N0gweiIvPiYjeGE7CTxnIGNsYXNzPSJzdDMiPiYjeGE7CQk8cGF0aCBkPSJNNCAzaDZ2MUg0eiIvPiYjeGE7CQk8cmVjdCB4PSIxMyIgeT0iMiIgd2lkdGg9IjMiIGhlaWdodD0iMyIgcng9IjEuNSIvPiYjeGE7CTwvZz4mI3hhOwk8cGF0aCBjbGFzcz0ic3QyIiBkPSJNMCA5aDIwdjdIMHoiLz4mI3hhOwk8cGF0aCBjbGFzcz0ic3QxIiBkPSJNMTggOWgydjdoLTJ6Ii8+JiN4YTsJPHBhdGggY2xhc3M9InN0MCIgZD0iTTE4IDE2bDItN2gtMnoiLz4mI3hhOwk8cGF0aCBjbGFzcz0ic3QxIiBkPSJNMCA5aDJ2N0gweiIvPiYjeGE7CTxnIGNsYXNzPSJzdDMiPiYjeGE7CQk8cGF0aCBkPSJNNCAxMmg2djFINHoiLz4mI3hhOwkJPHJlY3QgeD0iMTMiIHk9IjExIiB3aWR0aD0iMyIgaGVpZ2h0PSIzIiByeD0iMS41Ii8+JiN4YTsJPC9nPiYjeGE7PC9zdmc+;movable=1;resizable=1;rotatable=1;deletable=1;editable=1;locked=0;connectable=1;" vertex="1" parent="35dKP0a0qPvihtCSCPD3-16">
          <mxGeometry width="30" height="24" relative="1" as="geometry">
            <mxPoint x="15" y="18" as="offset" />
          </mxGeometry>
        </mxCell>
        <mxCell id="35dKP0a0qPvihtCSCPD3-18" value="" style="strokeColor=#dddddd;shadow=1;strokeWidth=1;rounded=1;absoluteArcSize=1;arcSize=2;movable=1;resizable=1;rotatable=1;deletable=1;editable=1;locked=0;connectable=1;" vertex="1" parent="35dKP0a0qPvihtCSCPD3-13">
          <mxGeometry x="260" y="427.86" width="130" height="60" as="geometry" />
        </mxCell>
        <mxCell id="35dKP0a0qPvihtCSCPD3-19" value="BigQuery" style="editableCssRules=.*;html=1;fontColor=#999999;shape=image;verticalLabelPosition=middle;verticalAlign=middle;labelPosition=right;align=left;spacingLeft=20;part=1;points=[];imageAspect=0;image=data:image/svg+xml,PHN2ZyB4bWxucz0iaHR0cDovL3d3dy53My5vcmcvMjAwMC9zdmciIHhtbG5zOnY9Imh0dHBzOi8vdmVjdGEuaW8vbmFubyIgd2lkdGg9IjIwLjAwMTA0NTIyNzA1MDc4IiBoZWlnaHQ9IjIwLjAwMTA0NTIyNzA1MDc4IiBmaWxsLXJ1bGU9ImV2ZW5vZGQiIHZpZXdCb3g9IjAgMCAyMC4wMDEwNDUyMjcwNTA3OCAyMC4wMDEwNDUyMjcwNTA3OCI+JiN4YTsJPHN0eWxlIHR5cGU9InRleHQvY3NzIj4mI3hhOwkuc3Qwe2ZpbGw6I2FlY2JmYTt9JiN4YTsJLnN0MXtmaWxsOiM2NjlkZjY7fSYjeGE7CS5zdDJ7ZmlsbDojNDI4NWY0O30mI3hhOwk8L3N0eWxlPiYjeGE7CTxwYXRoIGNsYXNzPSJzdDAiIGQ9Ik00LjczIDguODN2Mi42M2E0LjkxIDQuOTEgMCAwIDAgMS43MSAxLjc0VjguODN6Ii8+JiN4YTsJPHBhdGggY2xhc3M9InN0MSIgZD0iTTcuODkgNi40MXY3LjUzQTcuNjIgNy42MiAwIDAgMCA5IDE0YTggOCAwIDAgMCAxIDBWNi40MXoiLz4mI3hhOwk8cGF0aCBjbGFzcz0ic3QwIiBkPSJNMTEuNjQgOS44NnYzLjI5YTUgNSAwIDAgMCAxLjctMS44MlY5Ljg2eiIvPiYjeGE7CTxwYXRoIGNsYXNzPSJzdDIiIGQ9Ik0xNS43NCAxNC4zMmwtMS40MiAxLjQyYS40Mi40MiAwIDAgMCAwIC42bDMuNTQgMy41NGEuNDIuNDIgMCAwIDAgLjU5IDBsMS40My0xLjQzYS40Mi40MiAwIDAgMCAwLS41OWwtMy41NC0zLjU0YS40Mi40MiAwIDAgMC0uNiAwIi8+JiN4YTsJPHBhdGggY2xhc3M9InN0MSIgZD0iTTkgMGE5IDkgMCAxIDAgMCAxOEE5IDkgMCAxIDAgOSAwbTAgMTUuNjlhNi42OCA2LjY4IDAgMCAxIC4wMDctMTMuMzYgNi42OCA2LjY4IDAgMCAxIDQuNzI3IDExLjQwM0E2LjY4IDYuNjggMCAwIDEgOSAxNS42OSIvPiYjeGE7PC9zdmc+;movable=1;resizable=1;rotatable=1;deletable=1;editable=1;locked=0;connectable=1;" vertex="1" parent="35dKP0a0qPvihtCSCPD3-18">
          <mxGeometry width="30" height="30" relative="1" as="geometry">
            <mxPoint x="15" y="15" as="offset" />
          </mxGeometry>
        </mxCell>
        <mxCell id="35dKP0a0qPvihtCSCPD3-20" value="" style="strokeColor=#dddddd;shadow=1;strokeWidth=1;rounded=1;absoluteArcSize=1;arcSize=2;movable=1;resizable=1;rotatable=1;deletable=1;editable=1;locked=0;connectable=1;" vertex="1" parent="35dKP0a0qPvihtCSCPD3-13">
          <mxGeometry x="425.0050000000001" y="427.86" width="160" height="60" as="geometry" />
        </mxCell>
        <mxCell id="35dKP0a0qPvihtCSCPD3-21" value="Cloud Machine&#xa;Learning" style="editableCssRules=.*;html=1;fontColor=#999999;shape=image;verticalLabelPosition=middle;verticalAlign=middle;labelPosition=right;align=left;spacingLeft=20;part=1;points=[];imageAspect=0;image=data:image/svg+xml,PHN2ZyB4bWxucz0iaHR0cDovL3d3dy53My5vcmcvMjAwMC9zdmciIHhtbG5zOnY9Imh0dHBzOi8vdmVjdGEuaW8vbmFubyIgd2lkdGg9IjIwIiBoZWlnaHQ9IjE3LjUiIGZpbGwtcnVsZT0iZXZlbm9kZCIgdmlld0JveD0iMCAwIDIwIDE3LjUiPiYjeGE7CTxzdHlsZSB0eXBlPSJ0ZXh0L2NzcyI+JiN4YTsJLnN0MHtmaWxsOiM0Mjg1ZjQ7fSYjeGE7CS5zdDF7ZmlsbDojNjY5ZGY2O30mI3hhOwk8L3N0eWxlPiYjeGE7CTxwYXRoIGNsYXNzPSJzdDAiIGQ9Ik0xOC45MSAxMC42M0wyMCA4Ljc1IDE3LjgyIDVoLTMuMDdsLTEuMDYtMS44NkgxMi41VjEuODhoMS45NGwxLjA2IDEuODdoMS41OUwxNC45IDBoLTQuMjd2NWgxLjczbC43MyAxLjI1aC0yLjQ2djIuNWgyLjI2bDEuMDUtMS44N2gyLjgxbC43MiAxLjI1aC0yLjhMMTMuNjIgMTBoLTIuOTl2NC4zOGgzLjRsLS43MiAxLjI1aC0yLjY4djEuODdoNC4yN2wzLjI4LTUuNjJoLTIuMDlsLS43MyAxLjI1SDEyLjV2LTEuMjVoMi4xNGwuNzQtMS4yNXoiLz4mI3hhOwk8cGF0aCBjbGFzcz0ic3QxIiBkPSJNMS4wOSAxMC42M0wwIDguNzUgMi4xOCA1aDMuMDdsMS4wNi0xLjg2SDcuNVYxLjg4SDUuNTZMNC41IDMuNzVIMi45MUw1LjEgMGg0LjI4djVINy42NGwtLjczIDEuMjVoMi40N3YyLjVINy4xMUw2LjA2IDYuODhIMy4yNWwtLjcyIDEuMjVoMi44TDYuMzggMTBoM3Y0LjM4SDUuOTdsLjcyIDEuMjVoMi42OXYxLjg3SDUuMWwtMy4yOC01LjYyaDIuMDlsLjczIDEuMjVINy41di0xLjI1SDUuMzZsLS43NC0xLjI1eiIvPiYjeGE7PC9zdmc+;movable=1;resizable=1;rotatable=1;deletable=1;editable=1;locked=0;connectable=1;" vertex="1" parent="35dKP0a0qPvihtCSCPD3-20">
          <mxGeometry width="30" height="27" relative="1" as="geometry">
            <mxPoint x="15" y="16" as="offset" />
          </mxGeometry>
        </mxCell>
        <mxCell id="35dKP0a0qPvihtCSCPD3-22" value="" style="strokeColor=#dddddd;shadow=1;strokeWidth=1;rounded=1;absoluteArcSize=1;arcSize=2;" vertex="1" parent="35dKP0a0qPvihtCSCPD3-13">
          <mxGeometry x="110" y="547.86" width="120" height="60" as="geometry" />
        </mxCell>
        <mxCell id="35dKP0a0qPvihtCSCPD3-23" value="Pub/Sub" style="editableCssRules=.*;html=1;fontColor=#999999;shape=image;verticalLabelPosition=middle;verticalAlign=middle;labelPosition=right;align=left;spacingLeft=20;part=1;points=[];imageAspect=0;image=data:image/svg+xml,PHN2ZyB4bWxucz0iaHR0cDovL3d3dy53My5vcmcvMjAwMC9zdmciIHhtbG5zOnY9Imh0dHBzOi8vdmVjdGEuaW8vbmFubyIgd2lkdGg9IjE4LjMxOTk5OTY5NDgyNDIyIiBoZWlnaHQ9IjIwLjAwMDAwMTkwNzM0ODYzMyIgdmlld0JveD0iMCAwIDE4LjMxOTk5OTY5NDgyNDIyIDIwLjAwMDAwMTkwNzM0ODYzMyI+JiN4YTsJPHN0eWxlIHR5cGU9InRleHQvY3NzIj4mI3hhOwkuc3Qwe2ZpbGw6IzY2OWRmNjt9JiN4YTsJLnN0MXtmaWxsOiM0Mjg1ZjQ7fSYjeGE7CS5zdDJ7ZmlsbDojYWVjYmZhO30mI3hhOwk8L3N0eWxlPiYjeGE7CTxkZWZzPiYjeGE7CQk8ZmlsdGVyIGlkPSJBIiB4PSI0LjY0IiB5PSI0LjE5IiB3aWR0aD0iMTQuNzMiIGhlaWdodD0iMTIuNzYiIGZpbHRlclVuaXRzPSJ1c2VyU3BhY2VPblVzZSIgY29sb3ItaW50ZXJwb2xhdGlvbi1maWx0ZXJzPSJzUkdCIj4mI3hhOwkJCTxmZUZsb29kIGZsb29kLWNvbG9yPSIjZmZmIi8+JiN4YTsJCQk8ZmVCbGVuZCBpbj0iU291cmNlR3JhcGhpYyIvPiYjeGE7CQk8L2ZpbHRlcj4mI3hhOwkJPG1hc2sgaWQ9IkIiIHg9IjQuNjQiIHk9IjQuMTkiIHdpZHRoPSIxNC43MyIgaGVpZ2h0PSIxMi43NiIgbWFza1VuaXRzPSJ1c2VyU3BhY2VPblVzZSI+JiN4YTsJCQk8Y2lyY2xlIGN4PSIxMiIgY3k9IjEyLjIzIiByPSIzLjU4IiBmaWx0ZXI9InVybCgjQSkiLz4mI3hhOwkJPC9tYXNrPiYjeGE7CTwvZGVmcz4mI3hhOwk8ZyBjbGFzcz0ic3QwIj4mI3hhOwkJPGNpcmNsZSBjeD0iMTYuMTMiIGN5PSI2LjIxIiByPSIxLjcyIi8+JiN4YTsJCTxjaXJjbGUgY3g9IjIuMTkiIGN5PSI2LjIxIiByPSIxLjcyIi8+JiN4YTsJCTxjaXJjbGUgY3g9IjkuMTYiIGN5PSIxOC4yOCIgcj0iMS43MiIvPiYjeGE7CTwvZz4mI3hhOwk8ZyBtYXNrPSJ1cmwoI0IpIiB0cmFuc2Zvcm09InRyYW5zbGF0ZSgtMi44NCAtMikiPiYjeGE7CQk8cGF0aCB0cmFuc2Zvcm09Im1hdHJpeCguNSAtLjg3IC44NyAuNSAtNC41OSAyMC41MykiIGQ9Ik0xNC42OSAxMC4yMmgxLjU5djguMDRoLTEuNTl6IiBjbGFzcz0ic3QxIi8+JiN4YTsJCTxwYXRoIHRyYW5zZm9ybT0icm90YXRlKDMzMCA4LjUyMyAxNC4yNDQpIiBkPSJNNC40OSAxMy40NWg4LjA0djEuNTlINC40OXoiIGNsYXNzPSJzdDEiLz4mI3hhOwkJPHBhdGggZD0iTTExLjIgNC4xOWgxLjU5djguMDRIMTEuMnoiIGNsYXNzPSJzdDEiLz4mI3hhOwk8L2c+JiN4YTsJPGcgY2xhc3M9InN0MiI+JiN4YTsJCTxjaXJjbGUgY3g9IjkuMTYiIGN5PSIxMC4yMyIgcj0iMi43OCIvPiYjeGE7CQk8Y2lyY2xlIGN4PSIyLjE5IiBjeT0iMTQuMjUiIHI9IjIuMTkiLz4mI3hhOwkJPGNpcmNsZSBjeD0iMTYuMTMiIGN5PSIxNC4yNSIgcj0iMi4xOSIvPiYjeGE7CQk8Y2lyY2xlIGN4PSI5LjE2IiBjeT0iMi4xOSIgcj0iMi4xOSIvPiYjeGE7CTwvZz4mI3hhOzwvc3ZnPg==;" vertex="1" parent="35dKP0a0qPvihtCSCPD3-22">
          <mxGeometry width="27" height="30" relative="1" as="geometry">
            <mxPoint x="16" y="15" as="offset" />
          </mxGeometry>
        </mxCell>
        <mxCell id="35dKP0a0qPvihtCSCPD3-24" value="" style="strokeColor=#dddddd;shadow=1;strokeWidth=1;rounded=1;absoluteArcSize=1;arcSize=2;" vertex="1" parent="35dKP0a0qPvihtCSCPD3-13">
          <mxGeometry x="265" y="547.86" width="120" height="60" as="geometry" />
        </mxCell>
        <mxCell id="35dKP0a0qPvihtCSCPD3-25" value="Dataflow" style="editableCssRules=.*;html=1;fontColor=#999999;shape=image;verticalLabelPosition=middle;verticalAlign=middle;labelPosition=right;align=left;spacingLeft=20;part=1;points=[];imageAspect=0;image=data:image/svg+xml,PHN2ZyB4bWxucz0iaHR0cDovL3d3dy53My5vcmcvMjAwMC9zdmciIHhtbG5zOnY9Imh0dHBzOi8vdmVjdGEuaW8vbmFubyIgd2lkdGg9IjE0LjUxOTk5OTUwNDA4OTM1NSIgaGVpZ2h0PSIyMCIgdmlld0JveD0iMCAwIDE0LjUxOTk5OTUwNDA4OTM1NSAyMCI+JiN4YTsJPHN0eWxlIHR5cGU9InRleHQvY3NzIj4mI3hhOwkuc3Qwe2ZpbGwtcnVsZTpldmVub2RkfSYjeGE7CS5zdDF7ZmlsbDojNjY5ZGY2O30mI3hhOwkuc3Qye2ZpbGw6I2FlY2JmYTt9JiN4YTsJLnN0M3tmaWxsOiM0Mjg1ZjQ7fSYjeGE7CTwvc3R5bGU+JiN4YTsJPGcgY2xhc3M9InN0MCI+JiN4YTsJCTxwYXRoIGNsYXNzPSJzdDEiIGQ9Ik03LjM3IDIuMDNsLTEuNzIuOTYgMS41MiAxLjUtLjAyIDEuNzMgMS4wMi4wMS4wMi0xLjczIDQuMjQgMi41Ni0uMDEgMS4wNyAxLjc3LjAzVjYuMTFMOS4wNSAzLjA0bC0uMjctLjk0eiIvPiYjeGE7CQk8cGF0aCBjbGFzcz0ic3QyIiBkPSJNNy4zNiAyLjAzbC0xLjQyLjM1LS4yOS42MUwuMzkgNS45Mi4zNiA3Ljk3IDIuMTQgOGwuMDItMS4wNyA0LjMxLTIuNDUtLjAyIDEuNzMuODYuMDEuMDYtNC4xOXoiLz4mI3hhOwkJPGcgY2xhc3M9InN0MSI+JiN4YTsJCQk8cGF0aCBkPSJNNy4zNiAyLjAzTDMuOTUgMCAyLjIxLjk1bDMuNDQgMi4wNCAxLjcyLS45NnptLjcxIDExLjc2bC0xLjcyLS4wMi0uMDIgMS43Mi44MiAyLjQ4IDEuNDItLjEyLjI5LS44NSA1LjI3LTIuOTMuMDMtMi4wOS0xLjc5LS4wMi0uMDIgMS4xLTQuMyAyLjQ1eiIvPiYjeGE7CQkJPHBhdGggZD0iTTcuMTUgMTcuOTdsLTMuNDYgMS45NGgtLjA1bC0xLjY2LS45OSAzLjQ5LTEuOTYgMS42OCAxLjAxeiIvPiYjeGE7CQk8L2c+JiN4YTsJCTxwYXRoIGNsYXNzPSJzdDMiIGQ9Ik0xMC44OC4wOWgtLjA1TDcuMzcgMi4wM2wxLjY4IDEuMDEgMy40OS0xLjk2ek0xMC42MiAyMGgtLjA1bC0zLjQyLTIuMDNoMCAwIDBsMS43Mi0uOTYgMy40NCAyLjA0eiIvPiYjeGE7CQk8cGF0aCBjbGFzcz0ic3QyIiBkPSJNLjMzIDEzLjg5di0yaDEuNzZsLS4wMSAxLjA0IDQuMjUgMi41Ni4wMi0xLjcyLjg2LjAxLS4wNiA0LjE4LTEuNjgtMXoiLz4mI3hhOwk8L2c+JiN4YTsJPGNpcmNsZSBjbGFzcz0ic3QyIiBjeD0iMTMuMzgiIGN5PSIxMC4wNCIgcj0iMS4xNCIvPiYjeGE7CTxjaXJjbGUgY2xhc3M9InN0MiIgY3g9IjEuMTQiIGN5PSI5Ljg4IiByPSIxLjE0Ii8+JiN4YTsJPGNpcmNsZSBjbGFzcz0ic3QyIiBjeD0iNy4zMiIgY3k9IjcuOTkiIHI9IjEuMTQiLz4mI3hhOwk8Y2lyY2xlIGNsYXNzPSJzdDIiIGN4PSI3LjIzIiBjeT0iMTIiIHI9IjEuMTQiLz4mI3hhOzwvc3ZnPg==;" vertex="1" parent="35dKP0a0qPvihtCSCPD3-24">
          <mxGeometry width="22" height="30" relative="1" as="geometry">
            <mxPoint x="19" y="15" as="offset" />
          </mxGeometry>
        </mxCell>
        <mxCell id="35dKP0a0qPvihtCSCPD3-26" value="" style="shape=image;verticalLabelPosition=bottom;labelBackgroundColor=default;verticalAlign=top;aspect=fixed;imageAspect=0;image=data:image/png,iVBORw0KGgoAAAANSUhEUgAAAbEAAAB0CAMAAAA8XPwwAAAAwFBMVEX///9OTk7zdyaYl5hJSUk+Pj5LS0tDQ0N2dnfn5+dGRka2trY8PDxnZ2f19fWBgYFvcHDw8PDDw8Pb29tWVlbxawA4ODi9vb3i4uLJycmwsLCGhoZVVVXR0dGenp7X19fycxqmpqbycBBhYWGRkJH+8+385dr2qH/718VkZGT6zrjxaAD5xKr1nnD97uX83tD1lFzzgz/0i034upr0k173ron5xazyey32o3b60LrzhUT0jVP4tpT1k13zfzUsLCxmb2eAAAAP00lEQVR4nO1dCZeivBLVlkVREW1xX3Hrze6ZtveZ6e///6vHkgoQkgAKgq+558w5Y7OFXKpSqapUSqUk0a6pid6vQLqoV5tas9XPuhkFIqLd0qoWtHEhZ5eBKkAbZ92UAlEw0lzKOlk3pkAEVD1oZd2YAuGoaR7GmsVIln8MfIy1s25OgVD4ZSzr1hSIAC9jxTiWPR6f3g67/cuvXy8fr4fP7SZ4RmErnhOD4ZQz8jwdfi0M3TAWCIb54+rj7ZE4rZiPnQ211m2zuZrRD37udX2xuArA5PD9des9s/B5nAvtpmahWQke2u4MncIWZk3//eDVj4Vf8TyoOIxpt3PiwM0fHl0ODGPn5aw9KOz69HGrIfj14tNzOF+OoO0odkiB9NDGjHkNhs2LHoUuxNkhs9bnB+pwfS6LawWMeQayByOSfGHd+HvLvv9PwHypibJ8rmnoGhF2O4W/bP5EFzAE/e+ZWptHjCVRkcpl4VyM1Ry12MQyfRNPwJCYPZ+puTnErUlX+YyMlQZVcz52i3Xi4T4+XyYWVz9WMzbPzVipNO13avD/j9gaEaDfnK/FuUIGjHmwNzhiZIND2V0mTc4cmTL2EiRssTB03fzz9/OvX/uXX3++3q8cN2OQsvufSVmWjJGEWd7DP68PN6Sz/nH7efj4WugkbT9TMWbI2M7ws/X1+kl66L1Qt2/7K91Hsv50tsbmB9kx9qB76drfRfI+bQ9fXtIWP9BllRljT5gww3iJo942D7+xD3LxnVr7cousGFOh0/XvQ2xB2e4MJGjGLo3GJQG13W6nErqLz5iqHtUQ4qoXhzH96zjrYXNYGPm1Pqaz5kRuNESlqy3JqNLJAMYieYJr9XWzKylCeaXNhjF4Gyy1rlSeDN2/fOqOfJ3Q3wekG+NdNZt0bUg14sBasDuiLDJibi2no8oS+d5NQbIgwm91Zjn+nLMlSRHLy+DNlmWnFZMuu6VVaGnd+T2Uy0yI17Q7qKOuKAtOU8yWyHKLepoJzWnuCv0caM4biJ54sSUgi6sTJ1Q7i/ZFPL1YUSSngwOMKXzGqg6jkkIyhg6I6O/LnuLvTUkW6+TN2qKEmjElDwVO6aEb8xhr0KiY9WTJf5rQ0MjXdjC22yyh76fSQ9fJLmM7Uzz004eg7ZfJvB7Lw1gBYsimV0IYayEZDDCGDjg3HHRp/SoGkmARzRzd1kc3wuNVTBkbSrTzhUbg67EAn6v9Q8MXuow96qaAJTKXOtxfLf7EuSA9xgbm/zsi8VVDRylElw5FdKTBamgV3QlLYTzGKg3WqWt2rwjW/5uujnAZ2y/0PaulMbG9WsSaRyfP2FjAndbvsbpUEgkLRAoqHh/aiFKpDH+JxZgrJ+b4JYqyIrjnUsR65ry8bL2O5zG4cY96kpH/P3qcYFnyjK0xY8MedJJovrZgjvreTh34rlqix0ka/XF11HEKzocZooHN/QpckOMYJkyRteVwPp+OxhIe1MRg6iFqjSnwHa9sYsZ294ma5B/3MYQsecbQheK07XSTJHaXVgqtWuu0ZFfDuMJiow3iGGiIAw2UIiZ6irLQ4IbdqobR9H8OICeSOHPfpj+BxvQC5s7IOdQrlQT0XEE20UOMbeL0cBR8vEQ/N3nG0PcpT51Ollee/lBnDSwTStV3GYxT8oj2tDb61KXgMpDw+VgdaVTl1v+SYxg8y+QVmLGlw7Usj+vD6bCOVPnfxP23++hek9QYk5rWCVKDIGAwwaqxMfQeANtDWpUoAKVIGeZCfR41xLZcJY9U0DNlcoqIHtdQ7XcRFMKgTMFLEf2WyTM2ghHJ+qcEXRxNoIzQi0AkdfaLlWLQTxHKGJxAGSFbqK0ycVs0lVBsC0Su5ioxPgXGvMbVgHJlFxSjX2CQfVZWKAntKhrlaKovjDEkvJJA6XcVVDEhZDD5swnL2dKT5Bmru4z59R4AtBShAGvMUcW9J80lEsbYSuK0BX1eEuEd67vvQBPNTJEmYwrj68RS6J+U4TlysG+RUpQoZIYxBiLG6HiZ1pJSx2WMVJiZI03GmC8LelHw+RvA9gj2PUyfFYoTOYwxcMEwYgZovq/452QuYzLVi5UlUmSMNiD5TyFkBsa3BuuWDdpcjc8YTAqpFmgJe06I45gxacJ6h8yQPGN4DGjQzA4bKpiLfrsQbI/Adw1KkarZ+IyB1UeTTgsw0ev5XgMzxrwuO6QnY+Ro7gXSRcR0uQZerVv/2aAUZeoKbz5jXr80FejefpsGM8a+LjOkxxgvKNyhnwOzLkL74TtSx0U+Y6DdmE1BpqRfrqF9OVSKKTLGG7Pb0CPE8EG3MBCRAi0uEsIYmklIAXcHBrJQ/aYH44vKBdJjjB1ONgEDWc//Z3CX+BQqKEWGucdlDBkWwnhwTceA+jkAYzkcxtJkjDcEYP3nvxpsDx85jFkugMsYTP0EkQVIV/FJITDGitZlifQYo5riAJz34z8J3CGK94tHlChUp34IY2tvSI4Hvx3aiaInMkJGjGFhIgQRZM9jKUDkrMdoCJex1omMsZKtMkTWjBFdgrvK9VSh+7HcTHzGqlEZ819eMBbAkiFj4PcQ3GEFrZqleBsdcBkDmQ2FQrU8CsYwWFoRP7YBj8U+RdatIjEmSQIfMtW6LxgLv/sAAsZgZyBrj+2k5GtFZLUsrWR7LnyXFYwxr+4FjiAC8Nwa/aZm+XpP4FoecedVF8nYmnUA4TTGVhD8DRwBRzLyI6M4J9P3Hs26Z0soHRfJWAVmTIyJ8GkzaPBSUQxAf2IiUor0DCsbXMYgTShmIPkyGWPY3wCIGB/lpRpA8JLiKkQPRi4OZDrI7Kp2XMawE57dFt5lF8UYDlYxrGotjDGeJ5iTzIZtD1tGkaUosD25fMbg02DpdgYukjGcNs0YtCdhjPHGDpjY8oLK9oPRqMacjJXCoi2sICkfF8nYFBQXPeCAE6LYEU22saCCj54afup7Avlg63HegM8YLHOLV1L+IhkbBBaT+IDzodh5HmzTY8QVQ9XjJRZDxRWnFNAVZ/2ovr9Ixko9bsdPsPuHyRg7HFiGWAu9Q9DEwrQPkaCzM0ZKLmN0KYLYKW8kDOIyGWvCQEX7wLGIBRWbm/3WY7zvMkRvIvE2pcZpHV+lIaOVFT6DWQg9w5SBy2QMjMWg3vPm7/IYY2RJgDHIjheC8xdJMt9sgCwfhnNmDk1lOW9ouEzGwPQg3NoWVFcn8hgjFxyhi0EnstNecMoaUo/ctFwIA7D4x87gSfTs3stkDI825QaRddbuulEnLmNlSvFeFV/M0VNICp0zQ9JjOiE6FnLqzNeJnMoWwlgKtaR4Fcj84DCG1WK55/t8O8561IlzjMtYWVkR953jZbBUAUTwBftZCdgIeJ4hMjxZI1AWUoM+t6wFeAlh7JXboGNwE3392IzNWNvterGFP89h0+4AeQQlWMjL3Cxuu5fEimf8qI3xGk3q6iDAtWf1MS9T1QZe3cQgpKThT0+e1Mmn1upaL6D2Qxjb/g5pUlxsY9TN4TBWmnnW5IiryqjfX7YkJ/lIuMUjPtPnsUSTKblaH7RLavt6pImeJf7cIeLWjR1znMAOKi4h5fWoPlquu8SQ5mpxSVaqo7m9b7baHkxH464oS8FvImwc+0qWsqf7h+gnc7Si5+u13lVRZFxUwaqUg2ZNAVHB0Zb2DNwmsmit+7aLnANCjG2PaqUsy/Sj5gqkJNiNJEluTzxaVlJEuzlmg0TFWZge8DOHMXZz/x594AnFnW7EOJvLmGvE+yHJNXeFOic+1mKV3OBUM3KgYrmJkJa7Jh8T8IWqK07xD4q3O9RW/L0wElsM/aobcYqDwBgvU53bc2rNG6VrnYwYC0xzvBHNFp1yZRJqtY2xRRnBwOsSGVNKsELHukF7E9b5oYzd6Fd6MvbH5tm4iiNi7ioTejjiWlDI15MajskO6/FZTn/7wKgXTD8TgiN9ENhmj+LCbU/8rQzOIM2Pb8WouGQVpyIfEj4fe14ks/vKm27eKMYo5mGM4RFQxw1fnwtiFym0jkgtT0NkDdS81obFgNKoRpkWXUNgK5pzqeUTIboTsbPyjaTQHlEeB1Q0erfgy2FsrTp796eK2fbZuk08M4YZSsYYjBVrhDZhDetV3IPzVdPCinxdMs9j3vJcL3Zn0aaxEO6Puhxo2rRLJzoPkRi+/sFsZdekkuBtROF2RhtRh867NVdsg9auw20sYokHgc3OLokZsx43pMgInHPU6bKlNZtaazaM4JsLZuZY11c1rdqa9SOHgpHDJdS0d1Ebje2deit13jfRntYrLWdL3/WoMzhhWToq8/v+duT1m51T/T5uoWAw15Nb2hYplyoMuKBG3lb6u4BS3MYifmFnUx/uoRz3e8wrYSFrclUrEmGs7MkcyCv+Qtl6Q9/HM/U3b1+4fHq8AqbujCtuQh8HSTAGEbTcFdPw4R/e02Ohv++ijkabuxfPJi56XKUKZSVjjBdhSIAxKAAQqPCVM3x7NwHRFy8PofLy9PfLt+eOEdvapC6KPA0JMAZeRTH81Eyx8W+cY22K9O/vJ522zdPb7lsn9rM14peuBc9hMP/9aJzOWCVCxmM+8GhcEbD3snr/t389vN19ft7cfN7dPfzd7Z8XemBjJJOwf7GfiBOmEiyXdTJjUMAyNMySA2wDlCHeFoYL1rZxRqwa3A4gbSXJr/lUxqBERLmRw0XIATzyNvHjw4hRahbg1ixP0CY7kbE+Tl3NYS0NCja/6WIWimP2N5jjaHEE12xknMbYEhdcZ5e5yRn2R+19GtusN7HEkcCY6wj4OIUxtYrDM73Et+RJDQ/xKTPe4/v9O+7+HHIwnHQCTmCs724cIOZ8KubDY1zNGFcjtgedtVugn7ek4Rgczdhw5cY/z7bnfUI4xNl33fiOWX29/59vdweJs5ruGBzJ2HLiiTgqeSvOG4rNhx6RsyMiNHNfKF+InncZDUcy1vR8RPLFEVbyeuO5fMXK6UBoe7ciEbWkna1HMuYpui5emEoEPL5S/BpeLPT34yKgblKEIiZf3OxIxtya6r1EDaH0cN3p9+fE9373j7q5ukPXVWT/PgnkaJVkSs7R6aiLThWaXkzLA7k45fIluDpMW3u9Xlcq6zWZZLy5+/jW/bTZvsbnUzZ7qSqSoIhiNZ3igcPx2sY4pkFjZ04qjeQCdWlCnZl0OVgH7YDN52H/fKUjvL/sHp5OW1wxW1XHo2negoVTUZB9Sfp5xqziYs1UJpvHzf/zlupqWkKfAvprD2OVCxl3fzJUH2GV9eU41H4qhn7GKpfkUfuZGPkJqyQZ+iiQBmYkY3mz4goQWBaMXRjqhVa8MMwJyyP3OV8FCOs+yRB+gVQw9VK2Ti6fukBqqHsoK1weFwHsp1oX0+cLQW1kRyiWhYfqcqDWrk9Z41mgQAEa/gckNRxIUF7WGQAAAABJRU5ErkJggg==;dashed=1;dashPattern=1 2;" vertex="1" parent="35dKP0a0qPvihtCSCPD3-13">
          <mxGeometry x="430.3499999999999" y="557.86" width="149.31" height="40" as="geometry" />
        </mxCell>
        <mxCell id="35dKP0a0qPvihtCSCPD3-39" value="" style="shape=flexArrow;endArrow=classic;startArrow=classic;html=1;rounded=0;strokeColor=#666666;" edge="1" parent="35dKP0a0qPvihtCSCPD3-13" source="35dKP0a0qPvihtCSCPD3-15" target="35dKP0a0qPvihtCSCPD3-35">
          <mxGeometry width="100" height="100" relative="1" as="geometry">
            <mxPoint x="520" y="430" as="sourcePoint" />
            <mxPoint x="620" y="330" as="targetPoint" />
          </mxGeometry>
        </mxCell>
        <mxCell id="35dKP0a0qPvihtCSCPD3-27" value="Internet" style="line;strokeWidth=4;direction=south;html=1;perimeter=backbonePerimeter;points=[];outlineConnect=0;strokeColor=#B3B3B3;horizontal=0;fontSize=14;fontColor=#999999;movable=1;resizable=1;rotatable=1;deletable=1;editable=1;locked=0;connectable=1;" vertex="1" parent="1">
          <mxGeometry x="300" y="160" width="10" height="710" as="geometry" />
        </mxCell>
        <mxCell id="35dKP0a0qPvihtCSCPD3-28" value="" style="endArrow=none;html=1;rounded=0;exitX=1;exitY=0.623;exitDx=0;exitDy=0;exitPerimeter=0;strokeWidth=3;strokeColor=#B3B3B3;movable=1;resizable=1;rotatable=1;deletable=1;editable=1;locked=0;connectable=1;" edge="1" parent="1" source="35dKP0a0qPvihtCSCPD3-11" target="35dKP0a0qPvihtCSCPD3-27">
          <mxGeometry width="50" height="50" relative="1" as="geometry">
            <mxPoint x="480" y="440" as="sourcePoint" />
            <mxPoint x="530" y="390" as="targetPoint" />
          </mxGeometry>
        </mxCell>
        <mxCell id="35dKP0a0qPvihtCSCPD3-30" value="" style="endArrow=none;html=1;rounded=0;exitX=1;exitY=0.623;exitDx=0;exitDy=0;exitPerimeter=0;strokeWidth=3;strokeColor=#B3B3B3;movable=1;resizable=1;rotatable=1;deletable=1;editable=1;locked=0;connectable=1;" edge="1" parent="1">
          <mxGeometry width="50" height="50" relative="1" as="geometry">
            <mxPoint x="250" y="640" as="sourcePoint" />
            <mxPoint x="303" y="640" as="targetPoint" />
          </mxGeometry>
        </mxCell>
        <mxCell id="35dKP0a0qPvihtCSCPD3-31" value="" style="endArrow=none;html=1;rounded=0;exitX=1;exitY=0.623;exitDx=0;exitDy=0;exitPerimeter=0;strokeWidth=3;strokeColor=#B3B3B3;movable=1;resizable=1;rotatable=1;deletable=1;editable=1;locked=0;connectable=1;" edge="1" parent="1">
          <mxGeometry width="50" height="50" relative="1" as="geometry">
            <mxPoint x="250" y="504.78999999999996" as="sourcePoint" />
            <mxPoint x="303" y="504.78999999999996" as="targetPoint" />
          </mxGeometry>
        </mxCell>
        <mxCell id="35dKP0a0qPvihtCSCPD3-32" value="" style="endArrow=none;html=1;rounded=0;exitX=1;exitY=0.623;exitDx=0;exitDy=0;exitPerimeter=0;strokeWidth=3;strokeColor=#B3B3B3;movable=1;resizable=1;rotatable=1;deletable=1;editable=1;locked=0;connectable=1;" edge="1" parent="1">
          <mxGeometry width="50" height="50" relative="1" as="geometry">
            <mxPoint x="250" y="360" as="sourcePoint" />
            <mxPoint x="303" y="360" as="targetPoint" />
          </mxGeometry>
        </mxCell>
        <mxCell id="35dKP0a0qPvihtCSCPD3-33" value="" style="endArrow=none;html=1;rounded=0;strokeWidth=3;strokeColor=#B3B3B3;movable=1;resizable=1;rotatable=1;deletable=1;editable=1;locked=0;connectable=1;" edge="1" parent="1">
          <mxGeometry width="50" height="50" relative="1" as="geometry">
            <mxPoint x="305.16666666666674" y="579.2900000000002" as="sourcePoint" />
            <mxPoint x="360" y="579.2900000000001" as="targetPoint" />
          </mxGeometry>
        </mxCell>
        <mxCell id="35dKP0a0qPvihtCSCPD3-34" value="" style="sketch=0;aspect=fixed;pointerEvents=1;shadow=0;dashed=0;html=1;strokeColor=none;labelPosition=center;verticalLabelPosition=bottom;verticalAlign=top;align=center;shape=mxgraph.mscae.enterprise.website_generic;fillColor=#808080;movable=1;resizable=1;rotatable=1;deletable=1;editable=1;locked=0;connectable=1;" vertex="1" parent="1">
          <mxGeometry x="140" y="360" width="56.82" height="50" as="geometry" />
        </mxCell>
        <mxCell id="35dKP0a0qPvihtCSCPD3-36" value="" style="endArrow=none;html=1;rounded=0;strokeWidth=3;strokeColor=#B3B3B3;movable=1;resizable=1;rotatable=1;deletable=1;editable=1;locked=0;connectable=1;" edge="1" parent="1">
          <mxGeometry width="50" height="50" relative="1" as="geometry">
            <mxPoint x="305.16666666666674" y="289.50000000000017" as="sourcePoint" />
            <mxPoint x="360" y="289.50000000000006" as="targetPoint" />
          </mxGeometry>
        </mxCell>
      </root>
    </mxGraphModel>
  </diagram>
</mxfile>
